<?xml version="1.0" encoding="UTF-8"?>
<svg xmlns="http://www.w3.org/2000/svg" xmlns:xlink="http://www.w3.org/1999/xlink" width="284.04pt" height="141.88pt" viewBox="0 0 284.04 141.88" version="1.1">
<defs>
<clipPath id="clip1">
  <path d="M 0 0 L 284.039063 0 L 284.039063 141.878906 L 0 141.878906 Z M 0 0 "/>
</clipPath>
</defs>
<g id="surface1">
<g clip-path="url(#clip1)" clip-rule="nonzero">
<path style=" stroke:none;fill-rule:nonzero;fill:rgb(100%,100%,100%);fill-opacity:1;" d="M 284.035156 141.878906 L 0 141.878906 L 0 0 L 284.035156 0 L 284.035156 141.878906 "/>
</g>
<path style=" stroke:none;fill-rule:nonzero;fill:rgb(96.861267%,55.685425%,11.764526%);fill-opacity:1;" d="M 113.964844 65.929688 L 113.964844 76.023438 C 113.964844 76.949219 113.554688 78.339844 109.808594 78.339844 C 106.058594 78.339844 105.652344 76.949219 105.652344 76.023438 L 105.652344 65.929688 L 103.523438 65.929688 L 103.523438 76.136719 C 103.523438 78.636719 105.59375 79.722656 109.4375 79.722656 C 111.402344 79.722656 112.851563 79.394531 113.941406 79.089844 L 113.941406 83.652344 L 116.035156 83.652344 L 116.023438 65.929688 Z M 94.648438 61.113281 C 92.40625 61.113281 89.078125 61.582031 89.078125 63.871094 L 89.078125 65.929688 L 86.644531 65.929688 L 86.644531 67.109375 L 89.078125 67.109375 L 89.078125 79.402344 L 91.113281 79.402344 L 91.113281 67.109375 L 94.324219 67.109375 L 94.324219 65.929688 L 91.113281 65.929688 L 91.113281 64.125 C 91.113281 62.367188 93.167969 62.085938 94.648438 62.085938 C 97.105469 62.085938 98.324219 62.273438 98.324219 64.957031 L 98.324219 79.402344 L 100.359375 79.402344 L 100.359375 61.4375 L 98.324219 61.4375 C 97.191406 61.4375 96.640625 61.113281 94.648438 61.113281 Z M 196.105469 67.21875 C 194.875 67.21875 193.875 68.222656 193.875 69.457031 C 193.875 70.695313 194.875 71.699219 196.105469 71.699219 C 197.351563 71.699219 198.34375 70.695313 198.34375 69.457031 C 198.34375 68.222656 197.351563 67.21875 196.105469 67.21875 "/>
<path style=" stroke:none;fill-rule:nonzero;fill:rgb(0%,41.175842%,66.665649%);fill-opacity:1;" d="M 179.84375 68.519531 C 181.425781 68.339844 182.84375 68.25 183.738281 68.246094 C 183.246094 66.351563 181 65.609375 177.289063 65.609375 C 174.085938 65.609375 171.226563 66.714844 171.226563 66.714844 L 171.226563 69.351563 C 171.226563 69.351563 173.207031 67.753906 177.34375 67.753906 C 178.699219 67.753906 179.449219 67.996094 179.84375 68.519531 M 130.40625 75.140625 C 130.292969 76.597656 128.71875 77.390625 127.191406 77.390625 C 123.882813 77.390625 123.417969 75.949219 123.417969 72.664063 C 123.417969 69.378906 124.066406 67.945313 127.027344 67.945313 C 128.949219 67.945313 130.292969 68.730469 130.40625 70.1875 C 130.5 71.367188 130.546875 71.972656 130.546875 72.664063 C 130.546875 73.359375 130.5 74.03125 130.40625 75.140625 M 130.546875 66.414063 C 129.179688 65.882813 128.140625 65.605469 126.449219 65.605469 C 121.289063 65.605469 119.714844 67.550781 119.714844 72.664063 C 119.714844 77.753906 122.027344 79.722656 127.191406 79.722656 C 130.339844 79.722656 132.625 78.546875 134.25 78.546875 L 134.25 61.4375 L 130.546875 61.4375 Z M 190.648438 65.917969 L 186.945313 65.917969 L 186.945313 68.140625 L 190.648438 68.140625 Z M 180.273438 75.105469 C 180.273438 77.03125 178.472656 77.515625 177.242188 77.515625 C 175.136719 77.515625 174.0625 76.882813 174.0625 75.519531 C 174.0625 73.222656 177.011719 72.039063 180.273438 71.839844 Z M 191.425781 69.453125 L 190.351563 69.457031 C 175.339844 69.457031 170.472656 72.242188 170.472656 75.429688 C 170.472656 78.390625 173.019531 79.691406 177.140625 79.691406 C 179.800781 79.691406 182.492188 78.542969 183.898438 78.542969 L 183.898438 71.363281 C 185.65625 71.140625 186.96875 71.105469 186.96875 71.105469 L 186.96875 79.40625 L 190.667969 79.40625 L 190.667969 73.15625 C 190.667969 70.925781 191.425781 69.453125 191.425781 69.453125 M 161.054688 77.390625 C 159.523438 77.390625 157.953125 76.597656 157.835938 75.140625 C 157.746094 74.03125 157.699219 73.359375 157.699219 72.664063 C 157.699219 71.972656 157.746094 71.367188 157.835938 70.1875 C 157.953125 68.730469 159.296875 67.945313 161.21875 67.945313 C 164.179688 67.945313 164.828125 69.378906 164.828125 72.664063 C 164.828125 75.949219 164.363281 77.390625 161.054688 77.390625 M 161.792969 65.605469 C 160.105469 65.605469 159.0625 65.882813 157.699219 66.414063 L 157.699219 61.4375 L 153.996094 61.4375 L 153.996094 78.546875 C 155.621094 78.546875 157.90625 79.722656 161.054688 79.722656 C 166.214844 79.722656 168.53125 77.753906 168.53125 72.664063 C 168.53125 67.550781 166.953125 65.605469 161.792969 65.605469 M 147.238281 75.234375 C 147.238281 76.160156 146.9375 77.546875 144.160156 77.546875 C 141.382813 77.546875 141.082031 76.160156 141.082031 75.234375 L 141.082031 65.929688 L 137.378906 65.929688 L 137.378906 76.136719 C 137.378906 78.636719 139.945313 79.722656 143.789063 79.722656 C 147.191406 79.722656 149.386719 78.683594 150.476563 78.566406 L 150.941406 78.519531 L 150.941406 65.929688 L 147.238281 65.929688 L 147.238281 75.234375 "/>
</g>
</svg>
